<?xml version="1.0" standalone="no"?>
<!DOCTYPE svg PUBLIC "-//W3C//DTD SVG 20010904//EN"
 "http://www.w3.org/TR/2001/REC-SVG-20010904/DTD/svg10.dtd">
<svg
  version="1.0"
  xmlns="http://www.w3.org/2000/svg"
  width="320.000000pt"
  height="320.000000pt"
  viewBox="0 0 320.000000 320.000000"
  preserveAspectRatio="xMidYMid meet"
>
  <metadata>
    Created by potrace 1.14, written by Peter Selinger 2001-2017
  </metadata>

  <g
    transform="translate(0.000000,320.000000) scale(0.100000,-0.100000)"
    fill="#000000"
    stroke="none"
  >
    <path d="M2570 2864 c-203 -26 -339 -57 -536 -124 -163 -56 -456 -201 -569
    -283 -17 -12 -13 -13 34 -7 308 39 631 -109 806 -371 55 -81 115 -214 117
    -256 0 -1 5 -22 12 -45 28 -96 18 -311 -21 -433 -16 -51 -72 -176 -82 -185 -3
    -3 -23 -31 -45 -63 -94 -140 -274 -265 -457 -317 -93 -27 -282 -38 -371 -21
    -345 65 -602 304 -688 640 -22 89 -31 210 -19 293 3 29 5 54 4 56 -4 5 -120
    -189 -162 -273 -120 -236 -218 -544 -248 -780 -3 -27 -8 -63 -11 -80 -9 -64
    -13 -184 -6 -188 6 -4 152 -22 262 -32 79 -7 168 -16 218 -20 152 -14 187 -17
    372 -30 316 -21 1148 -28 1485 -12 193 10 188 9 196 21 22 30 17 1177 -6 1501
    -2 28 -7 93 -10 145 -4 52 -8 109 -10 125 -1 17 -6 72 -9 123 -4 52 -9 102
    -11 112 -2 10 -6 51 -10 92 -3 40 -8 84 -10 98 -3 14 -7 50 -10 80 -7 73 -17
    150 -30 230 -3 19 -56 20 -185 4z" />

    <path d="M1533 2238 c-476 -49 -731 -590 -466 -990 186 -282 568 -369 861
    -196 93 54 190 160 240 260 55 110 73 198 68 321 -17 367 -337 642 -703 605z
    m143 -439 c73 -22 134 -111 134 -194 0 -48 -23 -111 -52 -145 -52 -61 -165
    -88 -239 -56 -98 42 -151 146 -125 246 34 131 146 190 282 149z" />
  </g>
</svg>
