<svg width="1100" height="200" viewBox="0 0 1100 200" fill="none" xmlns="http://www.w3.org/2000/svg">
<path opacity="0.1" d="M1039.32 24.1612C1039.25 24.447 1039.25 24.7539 1039.31 25.0783C1039.31 25.0783 1040.28 31.5319 1039.18 34.4042L992.254 156.42L992.258 156.421C988.909 165.383 993.397 175.389 1002.35 178.832C1011.3 182.274 1021.33 177.853 1024.85 168.956L1024.86 168.958L1071.78 46.9419C1072.7 44.555 1077.93 39.9309 1077.93 39.9309C1078.19 39.7308 1078.4 39.501 1078.54 39.2416L1078.56 39.1941C1078.59 39.1432 1078.61 39.0943 1078.63 39.0411C1079.84 35.8948 1072.04 29.9647 1061.2 25.7967C1050.36 21.6283 1040.6 20.8002 1039.39 23.9465C1039.37 23.9997 1039.36 24.0553 1039.34 24.1104L1039.32 24.1612Z" fill="black"/>
<path d="M1037.97 23.124C1037.9 23.4098 1037.89 23.7168 1037.96 24.0412C1037.96 24.0412 1038.93 30.4948 1037.82 33.3671L990.897 155.383L990.902 155.384C987.553 164.346 992.041 174.352 1000.99 177.794C1009.94 181.236 1019.97 176.816 1023.49 167.919L1023.5 167.921L1070.43 45.9048C1071.34 43.5178 1076.58 38.8937 1076.58 38.8937C1076.84 38.6936 1077.04 38.4644 1077.18 38.2045L1077.2 38.1569C1077.23 38.1061 1077.26 38.0571 1077.28 38.0039C1078.49 34.8576 1070.68 28.9275 1059.85 24.7596C1049.01 20.5912 1039.24 19.7631 1038.03 22.9094C1038.01 22.9626 1038 23.0181 1037.98 23.0732L1037.97 23.124Z" fill="url(#paint0_linear_12_116)"/>
<path d="M1052.69 78.3231L1018.85 166.314L1018.87 166.323C1016.37 172.629 1009.11 175.91 1002.67 173.433C996.223 170.955 992.736 163.539 995.109 157.185L1016.73 100.96C1016.73 100.96 1019.43 96.6035 1024.74 93.5042C1030.04 90.405 1034.41 91.0594 1040.3 88.4423C1046.19 85.8247 1052.69 78.3231 1052.69 78.3231Z" fill="url(#paint1_linear_12_116)"/>
<path d="M1056.32 33.9918C1063.04 36.579 1069.05 37.2421 1069.73 35.4729C1070.41 33.7037 1065.51 30.172 1058.78 27.5848C1052.06 24.9976 1046.05 24.3345 1045.37 26.1037C1044.69 27.873 1049.59 31.4046 1056.32 33.9918Z" fill="#333333"/>
<path opacity="0.3" d="M1037.96 24.0407C1037.96 24.0407 1038.91 30.5315 1037.82 33.3666L990.897 155.382L990.902 155.384C987.553 164.346 992.041 174.352 1000.99 177.794C1002.54 178.391 1004.13 178.746 1005.71 178.888C999.675 174.35 997.086 166.233 999.854 158.827L999.85 158.826L1045.85 39.2299C1045.85 39.2303 1039.58 33.3515 1037.96 24.0407Z" fill="white"/>
<path opacity="0.5" d="M1022.85 104.111C1023.6 104.111 1024.21 103.502 1024.21 102.751C1024.21 102 1023.6 101.391 1022.85 101.391C1022.1 101.391 1021.49 102 1021.49 102.751C1021.49 103.502 1022.1 104.111 1022.85 104.111Z" fill="white"/>
<path opacity="0.5" d="M1031.76 114.66C1032.89 114.66 1033.81 113.742 1033.81 112.61C1033.81 111.478 1032.89 110.56 1031.76 110.56C1030.63 110.56 1029.71 111.478 1029.71 112.61C1029.71 113.742 1030.63 114.66 1031.76 114.66Z" fill="white"/>
<path opacity="0.5" d="M1018.15 128.179C1020.28 128.179 1022 126.458 1022 124.334C1022 122.211 1020.28 120.489 1018.15 120.489C1016.03 120.489 1014.31 122.211 1014.31 124.334C1014.31 126.458 1016.03 128.179 1018.15 128.179Z" fill="white"/>
<path opacity="0.5" d="M1011.93 133.494C1013.06 133.494 1013.98 132.577 1013.98 131.444C1013.98 130.312 1013.06 129.395 1011.93 129.395C1010.8 129.395 1009.88 130.312 1009.88 131.444C1009.88 132.577 1010.8 133.494 1011.93 133.494Z" fill="white"/>
<path opacity="0.5" d="M1020.09 148.011C1020.84 148.011 1021.45 147.402 1021.45 146.652C1021.45 145.901 1020.84 145.292 1020.09 145.292C1019.34 145.292 1018.73 145.901 1018.73 146.652C1018.73 147.402 1019.34 148.011 1020.09 148.011Z" fill="white"/>
<g opacity="0.1">
<path d="M780.847 95.2523C782.925 96.9133 786.666 95.9444 789.16 93.1756C791.793 90.2685 792.209 86.5304 790.131 84.869C788.052 83.2075 784.311 84.1769 781.817 87.0841C779.184 89.9912 778.768 93.5909 780.847 95.2523ZM774.75 100.652C774.196 100.652 773.226 101.621 774.057 102.036C775.165 102.451 775.72 103.42 775.72 104.805C774.75 110.481 767.683 116.987 764.912 119.202C764.219 119.895 765.189 121.418 765.882 120.864C767.406 119.618 770.593 117.126 773.226 113.803C768.93 123.356 760.616 135.677 757.429 139.969C744.959 157.274 725.975 173.194 712.95 173.194C702.558 173.194 693.69 166.134 691.75 155.751C691.612 154.643 690.087 154.366 690.365 155.889C692.72 170.149 703.667 175.686 716.969 175.686C731.518 175.686 748.596 165.144 757.987 154.357C773.184 136.9 783.064 116.849 780.431 105.497C779.323 101.205 776.413 100.513 774.75 100.652ZM868.239 138.612C872.258 137.642 875.583 135.394 875.583 131.916C875.583 131.569 874.89 131.569 874.89 131.916C874.89 134.003 872.535 135.705 869.902 136.12C863.667 137.089 851.335 129.776 845.515 122.3C851.75 124.654 864.498 121.206 870.456 116.914C875.999 112.9 878.216 108.475 878.632 104.876C879.324 98.9226 872.812 95.4656 863.805 98.9264C857.986 101.28 851.057 106.404 843.852 115.956C851.473 103.358 866.438 82.869 881.126 69.7175C899 53.7967 909.393 56.8427 893.319 73.7328C886.668 80.6549 874.197 89.6536 865.606 93.5301C862.974 94.6379 864.221 96.1605 866.16 95.33C875.306 91.3151 887.5 83.0089 894.843 76.0863C916.598 55.1817 898.446 39.3994 874.336 61.5501C857.985 76.6405 847.316 92.4224 838.032 112.912C834.845 116.788 832.489 119.972 829.579 122.464C829.236 122.767 828.961 123.062 828.735 123.345C820.733 130.202 808.171 139.459 800.366 139.57C794.823 139.708 792.468 135.555 793.438 130.156C794.962 121.711 803.691 111.743 811.174 108.282C820.873 103.852 826.554 112.435 813.806 119.357C808.956 121.849 803.137 123.233 800.781 123.233C798.009 123.233 798.287 124.341 800.643 124.479C804.522 124.618 810.758 122.957 814.915 121.018C827.94 114.788 828.771 103.159 814.637 102.744C799.257 102.19 780.828 115.342 780.966 131.816C781.105 139.293 787.063 143.307 795.238 143.307C808.834 143.184 820.994 132.818 830.937 123.701C832.365 122.514 833.744 121.209 835.122 119.833C831.657 128.693 829.856 136.861 830.688 142.953C831.242 147.383 833.736 149.459 835.676 151.121C836.092 151.398 836.923 151.121 836.369 150.29C833.459 146.829 834.29 136.559 838.309 126.591C841.635 133.238 854.66 141.658 868.239 138.612ZM851.889 109.727C867.824 95.4679 874.059 108.205 863.944 115.957C858.678 119.972 848.286 123.018 844.961 121.08L844.268 120.664C843.852 119.972 843.436 119.28 843.159 118.588C845.792 115.404 848.84 112.496 851.889 109.727ZM940.329 93.5692C946.703 94.2618 944.07 86.5087 937.558 88.447C934.648 89.2775 931.877 94.8149 929.798 99.6608C923.424 109.213 912.755 122.227 905.272 129.01C898.621 134.686 892.524 136.209 900.007 125.549C903.055 121.257 906.935 116.689 909.152 112.12C914.418 100.63 903.194 95.5075 894.187 102.43C888.922 106.444 881.855 114.751 876.313 119.319C874.788 120.565 875.204 122.365 876.728 121.119C881.162 117.519 888.922 109.352 895.573 104.506C901.115 100.214 903.332 102.983 900.145 106.582C895.711 111.705 887.952 120.565 886.012 126.241C883.24 134.686 886.566 138.424 892.109 138.424C899.73 138.424 911.092 126.518 918.713 117.104C921.207 113.92 923.979 110.182 926.334 106.582C919.683 119.458 912.755 132.471 904.164 144.238C891.971 160.852 876.729 173.311 862.318 173.311C851.926 173.311 842.919 166.251 840.979 155.868C840.84 154.76 839.455 154.483 839.593 156.006C841.948 170.266 852.895 175.803 866.198 175.803C880.747 175.803 894.742 167.358 904.58 156.975C924.395 136.07 926.75 112.536 932.847 99.3835C935.618 93.5692 938.251 93.2924 940.329 93.5692ZM1020.88 73.4122C1023.79 68.4284 1023.65 64.5519 1016.86 64.5519C1011.73 64.6903 1002.45 68.2895 998.153 71.6124C997.182 72.5818 997.598 73.1354 998.846 72.5818C999.677 72.3049 1000.65 71.7508 1001.62 71.336C1006.47 68.7057 1004.53 74.2432 1003.42 76.3198C997.599 86.4259 987.345 100.685 981.941 107.746C979.352 111.222 976.433 114.694 973.624 117.646C968.419 122.582 958.142 131.328 950.366 134.271C925.148 143.685 957.295 100.769 959.928 97.3073C965.886 89.8311 979.188 76.818 983.206 70.3111C986.116 65.3273 985.978 61.4508 979.188 61.4508C974.061 61.5892 964.778 65.1884 960.482 68.5113C959.512 69.4806 959.928 70.0338 961.175 69.4806C962.007 69.2038 962.976 68.6497 963.946 68.2349C968.796 65.6046 966.856 71.1421 965.748 73.2187C959.928 83.3248 949.674 97.5846 944.27 104.645C939.836 110.598 934.432 116.551 930.275 119.874C928.612 121.258 929.582 122.504 931.245 121.396C932.769 120.427 934.986 118.212 937.48 115.582C932.908 124.719 929.167 137.594 941.222 139.117C951.494 140.521 963.709 130.037 971.607 122.273C972.477 121.449 973.432 120.481 974.441 119.428C974.678 119.186 974.91 118.948 975.134 118.718C970.57 127.853 966.854 140.697 978.893 142.218C992.057 144.017 1008.41 126.297 1014.78 119.79C1016.03 118.544 1015.61 116.467 1013.53 118.544C1009.79 122.42 997.184 133.911 988.039 137.372C962.82 146.786 994.967 103.869 997.6 100.408C1003.56 92.9322 1016.86 79.9186 1020.88 73.4122Z" fill="black"/>
</g>
<path d="M779.516 93.9214C781.595 95.5828 785.336 94.6139 787.83 91.8447C790.463 88.9376 790.878 85.1995 788.8 83.538C786.722 81.8766 782.98 82.846 780.486 85.7531C777.853 88.6607 777.438 92.2604 779.516 93.9214ZM773.419 99.3209C772.865 99.3209 771.895 100.29 772.726 100.705C773.834 101.12 774.389 102.089 774.389 103.474C773.419 109.15 766.352 115.657 763.581 117.872C762.888 118.564 763.858 120.087 764.551 119.533C766.075 118.287 769.262 115.795 771.895 112.472C767.6 122.025 759.285 134.346 756.099 138.638C743.628 155.943 724.644 171.863 711.619 171.863C701.227 171.863 692.359 164.803 690.419 154.42C690.281 153.312 688.756 153.036 689.034 154.559C691.389 168.818 702.336 174.355 715.638 174.355C730.187 174.355 747.265 163.813 756.656 153.026C771.853 135.57 781.733 115.518 779.101 104.166C777.992 99.8745 775.082 99.1825 773.419 99.3209ZM866.909 137.281C870.927 136.312 874.252 134.064 874.252 130.586C874.252 130.238 873.559 130.238 873.559 130.586C873.559 132.672 871.204 134.374 868.571 134.789C862.336 135.758 850.004 128.446 844.184 120.97C850.419 123.323 863.167 119.875 869.125 115.583C874.668 111.569 876.885 107.145 877.301 103.545C877.993 97.5921 871.481 94.1346 862.474 97.5954C856.655 99.9489 849.726 105.073 842.521 114.625C850.142 102.027 865.107 81.5386 879.795 68.3865C897.669 52.4657 908.062 55.5118 891.989 72.4019C885.337 79.324 872.866 88.3227 864.275 92.1992C861.643 93.307 862.89 94.8295 864.829 93.9986C873.975 89.9841 886.169 81.6775 893.513 74.7554C915.267 53.8508 897.115 38.0684 873.005 60.2192C856.654 75.3095 845.985 91.0914 836.701 111.581C833.514 115.457 831.158 118.642 828.248 121.134C827.905 121.436 827.63 121.732 827.404 122.014C819.402 128.871 806.841 138.128 799.035 138.239C793.492 138.378 791.137 134.225 792.107 128.825C793.631 120.38 802.36 110.413 809.843 106.952C819.543 102.521 825.223 111.104 812.475 118.026C807.626 120.519 801.806 121.903 799.451 121.903C796.679 121.903 796.956 123.011 799.312 123.149C803.192 123.287 809.428 121.626 813.584 119.687C826.609 113.457 827.441 101.828 813.307 101.413C797.926 100.859 779.497 114.012 779.636 130.486C779.774 137.962 785.733 141.977 793.908 141.977C807.503 141.853 819.664 131.487 829.606 122.371C831.034 121.184 832.413 119.879 833.791 118.502C830.327 127.362 828.525 135.53 829.357 141.622C829.911 146.052 832.406 148.128 834.345 149.79C834.761 150.067 835.592 149.79 835.038 148.959C832.128 145.498 832.959 135.228 836.978 125.261C840.304 131.907 853.329 140.326 866.909 137.281ZM850.558 108.397C866.493 94.1375 872.728 106.874 862.613 114.626C857.348 118.641 846.956 121.687 843.63 119.749L842.937 119.333C842.521 118.641 842.106 117.949 841.829 117.257C844.461 114.073 847.509 111.166 850.558 108.397ZM938.999 92.2388C945.372 92.9308 942.74 85.1778 936.227 87.1165C933.317 87.947 930.546 93.485 928.467 98.3304C922.094 107.883 911.424 120.896 903.942 127.68C897.291 133.356 891.194 134.879 898.676 124.219C901.725 119.927 905.604 115.358 907.821 110.79C913.087 99.2997 901.863 94.1775 892.856 101.1C887.591 105.114 880.524 113.421 874.982 117.989C873.457 119.235 873.873 121.035 875.397 119.789C879.831 116.189 887.591 108.021 894.242 103.176C899.784 98.884 902.001 101.653 898.815 105.252C894.381 110.375 886.621 119.235 884.681 124.911C881.909 133.356 885.235 137.094 890.777 137.094C898.398 137.094 909.761 125.188 917.382 115.774C919.876 112.59 922.648 108.852 925.003 105.252C918.352 118.128 911.423 131.141 902.832 142.908C890.639 159.521 875.397 171.981 860.986 171.981C850.594 171.981 841.587 164.921 839.647 154.537C839.508 153.43 838.123 153.153 838.261 154.676C840.617 168.935 851.563 174.473 864.866 174.473C879.415 174.473 893.41 166.027 903.248 155.645C923.063 134.741 925.419 111.205 931.515 98.0535C934.287 92.2388 936.92 91.9615 938.999 92.2388ZM1019.55 72.0813C1022.46 67.0975 1022.32 63.221 1015.53 63.221C1010.4 63.3594 1001.12 66.9586 996.822 70.2815C995.852 71.2508 996.267 71.8045 997.515 71.2508C998.346 70.974 999.316 70.4203 1000.29 70.0051C1005.14 67.3748 1003.2 72.9123 1002.09 74.9889C996.268 85.095 986.013 99.3548 980.61 106.415C978.021 109.891 975.102 113.363 972.292 116.316C967.088 121.252 956.811 129.998 949.035 132.941C923.817 142.355 955.964 99.4377 958.596 95.9764C964.555 88.5007 977.857 75.487 981.875 68.9802C984.785 63.9964 984.646 60.1199 977.857 60.1199C972.73 60.2583 963.446 63.8575 959.151 67.1804C958.181 68.1497 958.596 68.7029 959.844 68.1497C960.675 67.8729 961.645 67.3188 962.615 66.904C967.465 64.2737 965.525 69.8111 964.416 71.8878C958.597 81.9938 948.342 96.2532 942.939 103.314C938.505 109.267 933.101 115.22 928.943 118.542C927.281 119.927 928.251 121.173 929.914 120.065C931.438 119.096 933.655 116.881 936.149 114.25C931.577 123.387 927.836 136.263 939.89 137.786C950.163 139.189 962.377 128.706 970.276 120.942C971.146 120.117 972.101 119.15 973.11 118.097C973.347 117.854 973.579 117.617 973.803 117.387C969.239 126.522 965.523 139.366 977.562 140.886C990.726 142.686 1007.08 124.965 1013.45 118.459C1014.7 117.213 1014.28 115.136 1012.2 117.213C1008.46 121.089 995.853 132.58 986.708 136.041C961.489 145.454 993.636 102.538 996.269 99.0766C1002.23 91.6013 1015.53 78.5881 1019.55 72.0813Z" fill="url(#paint2_linear_12_116)"/>
<g opacity="0.75">
<path d="M779.516 93.9214C781.595 95.5828 785.336 94.6139 787.83 91.8447C790.463 88.9376 790.878 85.1995 788.8 83.538C786.722 81.8766 782.98 82.846 780.486 85.7531C777.853 88.6607 777.438 92.2604 779.516 93.9214ZM773.419 99.3209C772.865 99.3209 771.895 100.29 772.726 100.705C773.834 101.12 774.389 102.089 774.389 103.474C773.419 109.15 766.352 115.657 763.581 117.872C762.888 118.564 763.858 120.087 764.551 119.533C766.075 118.287 769.262 115.795 771.895 112.472C767.6 122.025 759.285 134.346 756.099 138.638C743.628 155.943 724.644 171.863 711.619 171.863C701.227 171.863 692.359 164.803 690.419 154.42C690.281 153.312 688.756 153.036 689.034 154.559C691.389 168.818 702.336 174.355 715.638 174.355C730.187 174.355 747.265 163.813 756.656 153.026C771.853 135.57 781.733 115.518 779.101 104.166C777.992 99.8745 775.082 99.1825 773.419 99.3209ZM866.909 137.281C870.927 136.312 874.252 134.064 874.252 130.586C874.252 130.238 873.559 130.238 873.559 130.586C873.559 132.672 871.204 134.374 868.571 134.789C862.336 135.758 850.004 128.446 844.184 120.97C850.419 123.323 863.167 119.875 869.125 115.583C874.668 111.569 876.885 107.145 877.301 103.545C877.993 97.5921 871.481 94.1346 862.474 97.5954C856.655 99.9489 849.726 105.073 842.521 114.625C850.142 102.027 865.107 81.5386 879.795 68.3865C897.669 52.4657 908.062 55.5118 891.989 72.4019C885.337 79.324 872.866 88.3227 864.275 92.1992C861.643 93.307 862.89 94.8295 864.829 93.9986C873.975 89.9841 886.169 81.6775 893.513 74.7554C915.267 53.8508 897.115 38.0684 873.005 60.2192C856.654 75.3095 845.985 91.0914 836.701 111.581C833.514 115.457 831.158 118.642 828.248 121.134C827.905 121.436 827.63 121.732 827.404 122.014C819.402 128.871 806.841 138.128 799.035 138.239C793.492 138.378 791.137 134.225 792.107 128.825C793.631 120.38 802.36 110.413 809.843 106.952C819.543 102.521 825.223 111.104 812.475 118.026C807.626 120.519 801.806 121.903 799.451 121.903C796.679 121.903 796.956 123.011 799.312 123.149C803.192 123.287 809.428 121.626 813.584 119.687C826.609 113.457 827.441 101.828 813.307 101.413C797.926 100.859 779.497 114.012 779.636 130.486C779.774 137.962 785.733 141.977 793.908 141.977C807.503 141.853 819.664 131.487 829.606 122.371C831.034 121.184 832.413 119.879 833.791 118.502C830.327 127.362 828.525 135.53 829.357 141.622C829.911 146.052 832.406 148.128 834.345 149.79C834.761 150.067 835.592 149.79 835.038 148.959C832.128 145.498 832.959 135.228 836.978 125.261C840.304 131.907 853.329 140.326 866.909 137.281ZM850.558 108.397C866.493 94.1375 872.728 106.874 862.613 114.626C857.348 118.641 846.956 121.687 843.63 119.749L842.937 119.333C842.521 118.641 842.106 117.949 841.829 117.257C844.461 114.073 847.509 111.166 850.558 108.397ZM938.999 92.2388C945.372 92.9308 942.74 85.1778 936.227 87.1165C933.317 87.947 930.546 93.485 928.467 98.3304C922.094 107.883 911.424 120.896 903.942 127.68C897.291 133.356 891.194 134.879 898.676 124.219C901.725 119.927 905.604 115.358 907.821 110.79C913.087 99.2997 901.863 94.1775 892.856 101.1C887.591 105.114 880.524 113.421 874.982 117.989C873.457 119.235 873.873 121.035 875.397 119.789C879.831 116.189 887.591 108.021 894.242 103.176C899.784 98.884 902.001 101.653 898.815 105.252C894.381 110.375 886.621 119.235 884.681 124.911C881.909 133.356 885.235 137.094 890.777 137.094C898.398 137.094 909.761 125.188 917.382 115.774C919.876 112.59 922.648 108.852 925.003 105.252C918.352 118.128 911.423 131.141 902.832 142.908C890.639 159.521 875.397 171.981 860.986 171.981C850.594 171.981 841.587 164.921 839.647 154.537C839.508 153.43 838.123 153.153 838.261 154.676C840.617 168.935 851.563 174.473 864.866 174.473C879.415 174.473 893.41 166.027 903.248 155.645C923.063 134.741 925.419 111.205 931.515 98.0535C934.287 92.2388 936.92 91.9615 938.999 92.2388ZM1019.55 72.0813C1022.46 67.0975 1022.32 63.221 1015.53 63.221C1010.4 63.3594 1001.12 66.9586 996.822 70.2815C995.852 71.2508 996.267 71.8045 997.515 71.2508C998.346 70.974 999.316 70.4203 1000.29 70.0051C1005.14 67.3748 1003.2 72.9123 1002.09 74.9889C996.268 85.095 986.013 99.3548 980.61 106.415C978.021 109.891 975.102 113.363 972.292 116.316C967.088 121.252 956.811 129.998 949.035 132.941C923.817 142.355 955.964 99.4377 958.596 95.9764C964.555 88.5007 977.857 75.487 981.875 68.9802C984.785 63.9964 984.646 60.1199 977.857 60.1199C972.73 60.2583 963.446 63.8575 959.151 67.1804C958.181 68.1497 958.596 68.7029 959.844 68.1497C960.675 67.8729 961.645 67.3188 962.615 66.904C967.465 64.2737 965.525 69.8111 964.416 71.8878C958.597 81.9938 948.342 96.2532 942.939 103.314C938.505 109.267 933.101 115.22 928.943 118.542C927.281 119.927 928.251 121.173 929.914 120.065C931.438 119.096 933.655 116.881 936.149 114.25C931.577 123.387 927.836 136.263 939.89 137.786C950.163 139.189 962.377 128.706 970.276 120.942C971.146 120.117 972.101 119.15 973.11 118.097C973.347 117.854 973.579 117.617 973.803 117.387C969.239 126.522 965.523 139.366 977.562 140.886C990.726 142.686 1007.08 124.965 1013.45 118.459C1014.7 117.213 1014.28 115.136 1012.2 117.213C1008.46 121.089 995.853 132.58 986.708 136.041C961.489 145.454 993.636 102.538 996.269 99.0766C1002.23 91.6013 1015.53 78.5881 1019.55 72.0813Z" fill="white"/>
</g>
<g filter="url(#filter0_d_12_116)">
<rect x="619" y="65" width="15" height="75" rx="7.5" fill="#FB7185"/>
<rect x="619" y="65" width="15" height="75" rx="7.5" fill="#FB7185"/>
<rect x="619" y="65" width="15" height="75" rx="7.5" fill="#22D3EE"/>
<rect x="665" y="95" width="15" height="75" rx="7.5" transform="rotate(90 665 95)" fill="#FB7185"/>
<rect x="665" y="95" width="15" height="75" rx="7.5" transform="rotate(90 665 95)" fill="#FB7185"/>
<rect x="665" y="95" width="15" height="75" rx="7.5" transform="rotate(90 665 95)" fill="#22D3EE"/>
</g>
<rect x="613" y="60" width="15" height="75" rx="7.5" fill="#FB7185"/>
<rect x="613" y="60" width="15" height="75" rx="7.5" fill="#FB7185"/>
<rect x="613" y="60" width="15" height="75" rx="7.5" fill="#FB7185"/>
<rect x="659" y="90" width="15" height="75" rx="7.5" transform="rotate(90 659 90)" fill="#FB7185"/>
<rect x="659" y="90" width="15" height="75" rx="7.5" transform="rotate(90 659 90)" fill="#FB7185"/>
<rect x="659" y="90" width="15" height="75" rx="7.5" transform="rotate(90 659 90)" fill="#FB7185"/>
<g filter="url(#filter1_d_12_116)">
<path d="M134.389 117.53C134.389 128.072 125.866 136.619 115.352 136.619C104.838 136.619 96.3146 128.072 96.3146 117.53C96.3146 106.988 104.838 98.4411 115.352 98.4411C125.866 98.4411 134.389 106.988 134.389 117.53Z" fill="#22D3EE"/>
<path fill-rule="evenodd" clip-rule="evenodd" d="M98.2276 62.7989C99.0988 62.2741 100.003 61.7651 101.016 61.2746C100.063 61.7905 99.1328 62.2996 98.2276 62.7989Z" fill="#FB7185"/>
<path d="M27.4242 182H142.305C145.266 182 154.826 180.819 157.225 179.442C162.632 176.751 180 163.149 180 143.573V28.3829C179.174 11.259 123.682 48.9955 101.016 61.2746C100.063 61.7905 99.1328 62.2996 98.2276 62.7989C98.2276 62.7989 96.954 63.5857 96.3146 63.9909C95.7267 64.3635 95.1288 64.7425 94.4974 65.1269C97.7701 64.2916 101.199 63.8476 104.731 63.8476C127.572 63.8476 146.088 82.4136 146.088 105.316C146.088 128.218 127.572 146.784 104.731 146.784C81.8901 146.784 63.374 128.218 63.374 105.316C63.374 97.7143 65.4138 90.5904 68.9747 84.4646C59.6338 93.855 51.6276 104.67 44.9887 116.177C44.7376 116.612 44.4786 117.061 44.2125 117.522L44.2078 117.53C39.3219 125.99 24.2151 152.503 21.2415 165.271C18.745 174.726 19.6342 181.622 27.4242 182Z" fill="#FB7185"/>
</g>
<g filter="url(#filter2_d_12_116)">
<path d="M293.884 57.6364C293.884 65.4725 292.416 72.1842 289.48 77.7713C286.568 83.3348 282.591 87.5961 277.548 90.5554C272.53 93.5147 266.836 94.9943 260.468 94.9943C254.099 94.9943 248.394 93.5147 243.351 90.5554C238.332 87.5724 234.355 83.2992 231.419 77.7358C228.507 72.1487 227.051 65.4489 227.051 57.6364C227.051 49.8002 228.507 43.1004 231.419 37.5369C234.355 31.9498 238.332 27.6766 243.351 24.7173C248.394 21.758 254.099 20.2784 260.468 20.2784C266.836 20.2784 272.53 21.758 277.548 24.7173C282.591 27.6766 286.568 31.9498 289.48 37.5369C292.416 43.1004 293.884 49.8002 293.884 57.6364ZM280.638 57.6364C280.638 52.1203 279.774 47.4683 278.046 43.6804C276.341 39.8688 273.974 36.9924 270.943 35.0511C267.913 33.0862 264.421 32.1037 260.468 32.1037C256.514 32.1037 253.022 33.0862 249.992 35.0511C246.961 36.9924 244.582 39.8688 242.854 43.6804C241.149 47.4683 240.297 52.1203 240.297 57.6364C240.297 63.1525 241.149 67.8163 242.854 71.6278C244.582 75.4157 246.961 78.2921 249.992 80.2571C253.022 82.1984 256.514 83.169 260.468 83.169C264.421 83.169 267.913 82.1984 270.943 80.2571C273.974 78.2921 276.341 75.4157 278.046 71.6278C279.774 67.8163 280.638 63.1525 280.638 57.6364ZM427.192 41.2656C426.86 38.1643 425.463 35.7495 423.001 34.0213C420.563 32.2931 417.39 31.429 413.484 31.429C410.738 31.429 408.382 31.8433 406.417 32.6719C404.452 33.5005 402.949 34.625 401.907 36.0455C400.866 37.4659 400.333 39.0876 400.309 40.9105C400.309 42.4257 400.653 43.7396 401.339 44.8523C402.05 45.965 403.008 46.9119 404.216 47.6932C405.423 48.4508 406.761 49.09 408.229 49.6108C409.696 50.1316 411.176 50.5696 412.667 50.9247L419.486 52.6293C422.232 53.2685 424.872 54.1326 427.405 55.2216C429.961 56.3106 432.246 57.6837 434.258 59.3409C436.294 60.9981 437.904 62.9986 439.088 65.3423C440.272 67.6861 440.863 70.4323 440.863 73.581C440.863 77.8423 439.774 81.5947 437.596 84.8381C435.418 88.0578 432.27 90.5791 428.15 92.402C424.055 94.2012 419.095 95.1009 413.271 95.1009C407.613 95.1009 402.701 94.2249 398.534 92.473C394.391 90.7211 391.148 88.1643 388.804 84.8026C386.484 81.4408 385.229 77.3452 385.04 72.5156H398.001C398.191 75.0488 398.972 77.1558 400.345 78.8366C401.718 80.5175 403.506 81.7723 405.707 82.6009C407.933 83.4295 410.418 83.8438 413.165 83.8438C416.029 83.8438 418.539 83.4176 420.693 82.5653C422.871 81.6894 424.576 80.482 425.807 78.9432C427.038 77.3807 427.665 75.5578 427.689 73.4744C427.665 71.5805 427.109 70.018 426.02 68.7869C424.931 67.5322 423.404 66.4905 421.439 65.6619C419.497 64.8097 417.225 64.0521 414.621 63.3892L406.346 61.2585C400.357 59.7197 395.622 57.3878 392.142 54.2628C388.685 51.1141 386.957 46.9356 386.957 41.7273C386.957 37.4422 388.117 33.6899 390.437 30.4702C392.781 27.2505 395.965 24.7528 399.99 22.9773C404.015 21.178 408.572 20.2784 413.662 20.2784C418.823 20.2784 423.345 21.178 427.227 22.9773C431.133 24.7528 434.199 27.2268 436.425 30.3991C438.65 33.5478 439.798 37.17 439.869 41.2656H427.192ZM311.719 123.455V133.398H280.363V123.455H311.719ZM288.104 110.386H300.959V161.594C300.959 163.322 301.22 164.648 301.741 165.571C302.285 166.471 302.995 167.086 303.871 167.418C304.747 167.749 305.718 167.915 306.783 167.915C307.588 167.915 308.322 167.856 308.985 167.737C309.671 167.619 310.192 167.512 310.547 167.418L312.714 177.467C312.027 177.704 311.045 177.964 309.766 178.249C308.511 178.533 306.973 178.698 305.15 178.746C301.93 178.84 299.03 178.355 296.449 177.29C293.869 176.201 291.821 174.52 290.306 172.247C288.814 169.974 288.081 167.134 288.104 163.724V110.386ZM427.129 123.455V133.398H395.773V123.455H427.129ZM403.514 110.386H416.369V161.594C416.369 163.322 416.63 164.648 417.151 165.571C417.695 166.471 418.405 167.086 419.281 167.418C420.157 167.749 421.128 167.915 422.193 167.915C422.998 167.915 423.732 167.856 424.395 167.737C425.082 167.619 425.602 167.512 425.958 167.418L428.124 177.467C427.437 177.704 426.455 177.964 425.176 178.249C423.922 178.533 422.383 178.698 420.56 178.746C417.34 178.84 414.44 178.355 411.86 177.29C409.279 176.201 407.231 174.52 405.716 172.247C404.225 169.974 403.491 167.134 403.514 163.724V110.386ZM507.747 179.065C502.302 179.065 497.627 177.87 493.72 175.479C489.838 173.088 486.843 169.785 484.736 165.571C482.653 161.333 481.611 156.456 481.611 150.94C481.611 145.401 482.676 140.512 484.807 136.274C486.938 132.013 489.944 128.698 493.827 126.331C497.733 123.94 502.35 122.744 507.676 122.744C512.103 122.744 516.021 123.561 519.431 125.195C522.863 126.804 525.598 129.089 527.634 132.048C529.67 134.984 530.83 138.417 531.114 142.347H518.827C518.33 139.719 517.146 137.529 515.276 135.777C513.429 134.001 510.955 133.114 507.854 133.114C505.226 133.114 502.918 133.824 500.929 135.244C498.941 136.641 497.39 138.653 496.277 141.281C495.188 143.909 494.644 147.058 494.644 150.727C494.644 154.444 495.188 157.64 496.277 160.315C497.366 162.967 498.893 165.015 500.858 166.459C502.847 167.879 505.179 168.589 507.854 168.589C509.748 168.589 511.441 168.234 512.932 167.524C514.447 166.79 515.714 165.737 516.732 164.364C517.75 162.991 518.448 161.321 518.827 159.357H531.114C530.806 163.215 529.67 166.636 527.705 169.619C525.74 172.579 523.065 174.899 519.679 176.58C516.294 178.237 512.316 179.065 507.747 179.065Z" fill="#22D3EE"/>
<path d="M328.626 62.0398V94H315.771V21.2727H328.342V48.723H328.981C330.26 45.6454 332.237 43.2187 334.912 41.4432C337.611 39.6439 341.043 38.7443 345.21 38.7443C348.998 38.7443 352.3 39.5374 355.118 41.1236C357.935 42.7098 360.113 45.0298 361.652 48.0838C363.214 51.1378 363.996 54.8665 363.996 59.2699V94H351.14V61.2585C351.14 57.589 350.193 54.7363 348.3 52.7003C346.429 50.6406 343.801 49.6108 340.416 49.6108C338.143 49.6108 336.107 50.108 334.308 51.1023C332.532 52.0729 331.136 53.4815 330.118 55.3281C329.123 57.1747 328.626 59.4119 328.626 62.0398ZM485.833 95.0653C480.507 95.0653 475.89 93.8935 471.984 91.5497C468.078 89.206 465.047 85.9271 462.893 81.7131C460.762 77.4991 459.697 72.5748 459.697 66.9403C459.697 61.3059 460.762 56.3698 462.893 52.1321C465.047 47.8944 468.078 44.6037 471.984 42.2599C475.89 39.9162 480.507 38.7443 485.833 38.7443C491.16 38.7443 495.776 39.9162 499.683 42.2599C503.589 44.6037 506.607 47.8944 508.738 52.1321C510.892 56.3698 511.97 61.3059 511.97 66.9403C511.97 72.5748 510.892 77.4991 508.738 81.7131C506.607 85.9271 503.589 89.206 499.683 91.5497C495.776 93.8935 491.16 95.0653 485.833 95.0653ZM485.904 84.767C488.793 84.767 491.207 83.974 493.149 82.3878C495.09 80.7779 496.534 78.6236 497.481 75.9247C498.452 73.2259 498.937 70.2192 498.937 66.9048C498.937 63.5668 498.452 60.5483 497.481 57.8494C496.534 55.1269 495.09 52.9607 493.149 51.3509C491.207 49.741 488.793 48.9361 485.904 48.9361C482.945 48.9361 480.483 49.741 478.518 51.3509C476.577 52.9607 475.121 55.1269 474.15 57.8494C473.203 60.5483 472.73 63.5668 472.73 66.9048C472.73 70.2192 473.203 73.2259 474.15 75.9247C475.121 78.6236 476.577 80.7779 478.518 82.3878C480.483 83.974 482.945 84.767 485.904 84.767ZM249.633 125.266C249.302 122.164 247.905 119.75 245.443 118.021C243.004 116.293 239.832 115.429 235.926 115.429C233.179 115.429 230.824 115.843 228.859 116.672C226.894 117.5 225.391 118.625 224.349 120.045C223.307 121.466 222.775 123.088 222.751 124.911C222.751 126.426 223.094 127.74 223.781 128.852C224.491 129.965 225.45 130.912 226.657 131.693C227.865 132.451 229.202 133.09 230.67 133.611C232.138 134.132 233.617 134.57 235.109 134.925L241.927 136.629C244.673 137.268 247.313 138.133 249.846 139.222C252.403 140.311 254.687 141.684 256.7 143.341C258.736 144.998 260.346 146.999 261.529 149.342C262.713 151.686 263.305 154.432 263.305 157.581C263.305 161.842 262.216 165.595 260.038 168.838C257.86 172.058 254.711 174.579 250.592 176.402C246.496 178.201 241.536 179.101 235.713 179.101C230.054 179.101 225.142 178.225 220.975 176.473C216.832 174.721 213.589 172.164 211.245 168.803C208.925 165.441 207.67 161.345 207.481 156.516H220.443C220.632 159.049 221.413 161.156 222.786 162.837C224.16 164.518 225.947 165.772 228.149 166.601C230.374 167.429 232.86 167.844 235.606 167.844C238.471 167.844 240.98 167.418 243.134 166.565C245.312 165.689 247.017 164.482 248.248 162.943C249.479 161.381 250.106 159.558 250.13 157.474C250.106 155.58 249.55 154.018 248.461 152.787C247.372 151.532 245.845 150.491 243.88 149.662C241.939 148.81 239.666 148.052 237.062 147.389L228.788 145.259C222.798 143.72 218.063 141.388 214.583 138.263C211.127 135.114 209.399 130.936 209.399 125.727C209.399 121.442 210.559 117.69 212.879 114.47C215.222 111.25 218.407 108.753 222.431 106.977C226.456 105.178 231.013 104.278 236.103 104.278C241.264 104.278 245.786 105.178 249.669 106.977C253.575 108.753 256.641 111.227 258.866 114.399C261.091 117.548 262.24 121.17 262.311 125.266H249.633ZM348.166 179.101C344.71 179.101 341.597 178.485 338.827 177.254C336.081 176 333.903 174.153 332.293 171.714C330.707 169.276 329.914 166.269 329.914 162.695C329.914 159.617 330.482 157.072 331.618 155.06C332.754 153.047 334.305 151.438 336.27 150.23C338.235 149.023 340.449 148.111 342.911 147.496C345.396 146.857 347.965 146.395 350.617 146.111C353.813 145.779 356.405 145.483 358.394 145.223C360.382 144.939 361.826 144.513 362.726 143.945C363.649 143.353 364.111 142.441 364.111 141.21V140.997C364.111 138.322 363.318 136.25 361.732 134.783C360.146 133.315 357.861 132.581 354.878 132.581C351.729 132.581 349.232 133.268 347.385 134.641C345.562 136.014 344.331 137.635 343.692 139.506L331.689 137.801C332.636 134.487 334.199 131.717 336.377 129.491C338.555 127.242 341.218 125.562 344.367 124.449C347.515 123.312 350.995 122.744 354.807 122.744C357.435 122.744 360.051 123.052 362.655 123.668C365.259 124.283 367.638 125.301 369.793 126.722C371.947 128.118 373.675 130.024 374.977 132.439C376.303 134.854 376.966 137.872 376.966 141.494V178H364.608V170.507H364.182C363.401 172.022 362.3 173.443 360.879 174.768C359.483 176.071 357.719 177.124 355.588 177.929C353.481 178.71 351.007 179.101 348.166 179.101ZM351.504 169.655C354.085 169.655 356.322 169.146 358.216 168.128C360.11 167.086 361.566 165.713 362.584 164.009C363.626 162.304 364.146 160.446 364.146 158.433V152.006C363.744 152.337 363.057 152.645 362.087 152.929C361.14 153.213 360.075 153.462 358.891 153.675C357.707 153.888 356.535 154.077 355.375 154.243C354.215 154.409 353.209 154.551 352.357 154.669C350.439 154.929 348.723 155.356 347.208 155.947C345.692 156.539 344.497 157.368 343.621 158.433C342.745 159.475 342.307 160.824 342.307 162.482C342.307 164.849 343.171 166.636 344.899 167.844C346.628 169.051 348.829 169.655 351.504 169.655ZM447.881 178V123.455H460.736V178H447.881ZM454.344 115.713C452.308 115.713 450.556 115.038 449.088 113.689C447.62 112.316 446.886 110.67 446.886 108.753C446.886 106.812 447.62 105.166 449.088 103.817C450.556 102.444 452.308 101.757 454.344 101.757C456.403 101.757 458.155 102.444 459.599 103.817C461.067 105.166 461.801 106.812 461.801 108.753C461.801 110.67 461.067 112.316 459.599 113.689C458.155 115.038 456.403 115.713 454.344 115.713Z" fill="#FB7185"/>
</g>
<defs>
<filter id="filter0_d_12_116" x="586" y="65" width="83" height="83" filterUnits="userSpaceOnUse" color-interpolation-filters="sRGB">
<feFlood flood-opacity="0" result="BackgroundImageFix"/>
<feColorMatrix in="SourceAlpha" type="matrix" values="0 0 0 0 0 0 0 0 0 0 0 0 0 0 0 0 0 0 127 0" result="hardAlpha"/>
<feOffset dy="4"/>
<feGaussianBlur stdDeviation="2"/>
<feComposite in2="hardAlpha" operator="out"/>
<feColorMatrix type="matrix" values="0 0 0 0 0 0 0 0 0 0 0 0 0 0 0 0 0 0 0.25 0"/>
<feBlend mode="normal" in2="BackgroundImageFix" result="effect1_dropShadow_12_116"/>
<feBlend mode="normal" in="SourceGraphic" in2="effect1_dropShadow_12_116" result="shape"/>
</filter>
<filter id="filter1_d_12_116" x="16" y="24" width="168" height="166" filterUnits="userSpaceOnUse" color-interpolation-filters="sRGB">
<feFlood flood-opacity="0" result="BackgroundImageFix"/>
<feColorMatrix in="SourceAlpha" type="matrix" values="0 0 0 0 0 0 0 0 0 0 0 0 0 0 0 0 0 0 127 0" result="hardAlpha"/>
<feOffset dy="4"/>
<feGaussianBlur stdDeviation="2"/>
<feComposite in2="hardAlpha" operator="out"/>
<feColorMatrix type="matrix" values="0 0 0 0 0 0 0 0 0 0 0 0 0 0 0 0 0 0 0.25 0"/>
<feBlend mode="normal" in2="BackgroundImageFix" result="effect1_dropShadow_12_116"/>
<feBlend mode="normal" in="SourceGraphic" in2="effect1_dropShadow_12_116" result="shape"/>
</filter>
<filter id="filter2_d_12_116" x="203.481" y="20.2784" width="331.633" height="166.822" filterUnits="userSpaceOnUse" color-interpolation-filters="sRGB">
<feFlood flood-opacity="0" result="BackgroundImageFix"/>
<feColorMatrix in="SourceAlpha" type="matrix" values="0 0 0 0 0 0 0 0 0 0 0 0 0 0 0 0 0 0 127 0" result="hardAlpha"/>
<feOffset dy="4"/>
<feGaussianBlur stdDeviation="2"/>
<feComposite in2="hardAlpha" operator="out"/>
<feColorMatrix type="matrix" values="0 0 0 0 0 0 0 0 0 0 0 0 0 0 0 0 0 0 0.25 0"/>
<feBlend mode="normal" in2="BackgroundImageFix" result="effect1_dropShadow_12_116"/>
<feBlend mode="normal" in="SourceGraphic" in2="effect1_dropShadow_12_116" result="shape"/>
</filter>
<linearGradient id="paint0_linear_12_116" x1="1010.8" y1="93.7314" x2="1050.04" y2="108.824" gradientUnits="userSpaceOnUse">
<stop stop-color="#919191"/>
<stop offset="1" stop-color="white"/>
</linearGradient>
<linearGradient id="paint1_linear_12_116" x1="1009.79" y1="119" x2="1033.55" y2="128.137" gradientUnits="userSpaceOnUse">
<stop stop-color="#990000"/>
<stop offset="1" stop-color="#E80000"/>
</linearGradient>
<linearGradient id="paint2_linear_12_116" x1="855.173" y1="174.472" x2="855.173" y2="49.4902" gradientUnits="userSpaceOnUse">
<stop stop-color="#1A1A1A"/>
<stop offset="0.4026" stop-color="#4A4A4C"/>
<stop offset="1" stop-color="#333333"/>
</linearGradient>
</defs>
</svg>
