<svg width="1190" height="256" viewBox="0 0 1190 256" fill="none" xmlns="http://www.w3.org/2000/svg">
<g filter="url(#filter0_d_12_116)">
<rect x="671" y="93" width="15" height="75" rx="7.5" fill="#FB7185"/>
<rect x="671" y="93" width="15" height="75" rx="7.5" fill="#FB7185"/>
<rect x="671" y="93" width="15" height="75" rx="7.5" fill="#22D3EE"/>
<rect x="717" y="123" width="15" height="75" rx="7.5" transform="rotate(90 717 123)" fill="#FB7185"/>
<rect x="717" y="123" width="15" height="75" rx="7.5" transform="rotate(90 717 123)" fill="#FB7185"/>
<rect x="717" y="123" width="15" height="75" rx="7.5" transform="rotate(90 717 123)" fill="#22D3EE"/>
</g>
<rect x="665" y="88" width="15" height="75" rx="7.5" fill="#FB7185"/>
<rect x="665" y="88" width="15" height="75" rx="7.5" fill="#FB7185"/>
<rect x="665" y="88" width="15" height="75" rx="7.5" fill="#FB7185"/>
<rect x="711" y="118" width="15" height="75" rx="7.5" transform="rotate(90 711 118)" fill="#FB7185"/>
<rect x="711" y="118" width="15" height="75" rx="7.5" transform="rotate(90 711 118)" fill="#FB7185"/>
<rect x="711" y="118" width="15" height="75" rx="7.5" transform="rotate(90 711 118)" fill="#FB7185"/>
<g filter="url(#filter1_d_12_116)">
<path d="M297.86 93.6364C297.86 101.473 296.392 108.184 293.457 113.771C290.545 119.335 286.568 123.596 281.525 126.555C276.506 129.515 270.812 130.994 264.444 130.994C258.076 130.994 252.37 129.515 247.328 126.555C242.309 123.572 238.331 119.299 235.396 113.736C232.484 108.149 231.028 101.449 231.028 93.6364C231.028 85.8002 232.484 79.1004 235.396 73.5369C238.331 67.9498 242.309 63.6766 247.328 60.7173C252.37 57.758 258.076 56.2784 264.444 56.2784C270.812 56.2784 276.506 57.758 281.525 60.7173C286.568 63.6766 290.545 67.9498 293.457 73.5369C296.392 79.1004 297.86 85.8002 297.86 93.6364ZM284.615 93.6364C284.615 88.1203 283.75 83.4683 282.022 79.6804C280.318 75.8688 277.95 72.9924 274.92 71.0511C271.89 69.0862 268.398 68.1037 264.444 68.1037C260.49 68.1037 256.999 69.0862 253.968 71.0511C250.938 72.9924 248.559 75.8688 246.83 79.6804C245.126 83.4683 244.274 88.1203 244.274 93.6364C244.274 99.1525 245.126 103.816 246.83 107.628C248.559 111.416 250.938 114.292 253.968 116.257C256.999 118.198 260.49 119.169 264.444 119.169C268.398 119.169 271.89 118.198 274.92 116.257C277.95 114.292 280.318 111.416 282.022 107.628C283.75 103.816 284.615 99.1525 284.615 93.6364ZM478.08 54.929C477.55 50.2225 475.362 46.5767 471.518 43.9915C467.673 41.3731 462.834 40.0639 457.001 40.0639C452.824 40.0639 449.212 40.7268 446.162 42.0526C443.113 43.3452 440.743 45.1349 439.053 47.4219C437.396 49.6757 436.567 52.2443 436.567 55.1278C436.567 57.5473 437.131 59.6354 438.258 61.392C439.418 63.1487 440.926 64.6236 442.782 65.8168C444.671 66.9768 446.693 67.9545 448.847 68.75C451.001 69.5123 453.073 70.142 455.062 70.6392L465.005 73.2244C468.253 74.0199 471.584 75.0971 474.998 76.456C478.412 77.8149 481.577 79.6046 484.493 81.8253C487.41 84.0459 489.763 86.7969 491.553 90.0781C493.376 93.3594 494.287 97.2869 494.287 101.861C494.287 107.628 492.796 112.749 489.813 117.223C486.863 121.697 482.571 125.227 476.937 127.812C471.335 130.398 464.557 131.69 456.603 131.69C448.98 131.69 442.384 130.481 436.816 128.061C431.248 125.642 426.889 122.211 423.741 117.77C420.592 113.295 418.852 107.992 418.52 101.861H433.932C434.231 105.54 435.424 108.606 437.512 111.058C439.633 113.478 442.334 115.284 445.616 116.477C448.93 117.637 452.559 118.217 456.503 118.217C460.845 118.217 464.707 117.538 468.087 116.179C471.501 114.787 474.186 112.865 476.141 110.412C478.097 107.926 479.074 105.026 479.074 101.712C479.074 98.6955 478.213 96.2263 476.489 94.304C474.799 92.3816 472.495 90.7907 469.579 89.5312C466.695 88.2718 463.43 87.1615 459.785 86.2003L447.753 82.919C439.6 80.6984 433.137 77.4337 428.364 73.125C423.625 68.8163 421.255 63.1155 421.255 56.0227C421.255 50.1562 422.846 45.0355 426.028 40.6605C429.209 36.2855 433.518 32.8883 438.954 30.4688C444.389 28.0161 450.521 26.7898 457.349 26.7898C464.242 26.7898 470.324 27.9995 475.594 30.419C480.897 32.8385 485.073 36.1695 488.123 40.4119C491.172 44.6212 492.763 49.4602 492.895 54.929H478.08ZM339.219 159.455V169.398H307.863V159.455H339.219ZM315.604 146.386H328.459V197.594C328.459 199.322 328.72 200.648 329.241 201.571C329.785 202.471 330.495 203.086 331.371 203.418C332.247 203.749 333.218 203.915 334.283 203.915C335.088 203.915 335.822 203.856 336.485 203.737C337.171 203.619 337.692 203.512 338.047 203.418L340.214 213.467C339.527 213.704 338.545 213.964 337.266 214.249C336.011 214.533 334.473 214.698 332.65 214.746C329.43 214.84 326.53 214.355 323.949 213.29C321.369 212.201 319.321 210.52 317.806 208.247C316.314 205.974 315.581 203.134 315.604 199.724V146.386ZM460.629 159.455V169.398H429.273V159.455H460.629ZM437.014 146.386H449.869V197.594C449.869 199.322 450.13 200.648 450.651 201.571C451.195 202.471 451.905 203.086 452.781 203.418C453.657 203.749 454.628 203.915 455.693 203.915C456.498 203.915 457.232 203.856 457.895 203.737C458.582 203.619 459.102 203.512 459.458 203.418L461.624 213.467C460.937 213.704 459.955 213.964 458.676 214.249C457.422 214.533 455.883 214.698 454.06 214.746C450.84 214.84 447.94 214.355 445.36 213.29C442.779 212.201 440.731 210.52 439.216 208.247C437.725 205.974 436.991 203.134 437.014 199.724V146.386ZM547.247 215.065C541.802 215.065 537.127 213.87 533.22 211.479C529.338 209.088 526.343 205.785 524.236 201.571C522.153 197.333 521.111 192.456 521.111 186.94C521.111 181.401 522.176 176.512 524.307 172.274C526.438 168.013 529.444 164.698 533.327 162.331C537.233 159.94 541.85 158.744 547.176 158.744C551.603 158.744 555.521 159.561 558.931 161.195C562.363 162.804 565.098 165.089 567.134 168.048C569.17 170.984 570.33 174.417 570.614 178.347H558.327C557.83 175.719 556.646 173.529 554.776 171.777C552.929 170.001 550.455 169.114 547.354 169.114C544.726 169.114 542.418 169.824 540.429 171.244C538.441 172.641 536.89 174.653 535.777 177.281C534.688 179.909 534.144 183.058 534.144 186.727C534.144 190.444 534.688 193.64 535.777 196.315C536.866 198.967 538.393 201.015 540.358 202.459C542.347 203.879 544.679 204.589 547.354 204.589C549.248 204.589 550.941 204.234 552.432 203.524C553.947 202.79 555.214 201.737 556.232 200.364C557.25 198.991 557.948 197.321 558.327 195.357H570.614C570.306 199.215 569.17 202.636 567.205 205.619C565.24 208.579 562.565 210.899 559.179 212.58C555.794 214.237 551.816 215.065 547.247 215.065Z" fill="#22D3EE"/>
<path d="M338.001 84.6591V130H323.135V28.1818H337.802V66.0653H338.746C340.536 61.9555 343.27 58.6908 346.949 56.2713C350.628 53.8518 355.434 52.642 361.367 52.642C366.604 52.642 371.178 53.7192 375.089 55.8736C379.033 58.0279 382.082 61.2429 384.236 65.5185C386.424 69.7609 387.518 75.0639 387.518 81.4276V130H372.653V83.2173C372.653 77.616 371.211 73.2741 368.327 70.1918C365.444 67.0762 361.433 65.5185 356.296 65.5185C352.783 65.5185 349.634 66.2642 346.85 67.7557C344.099 69.2472 341.928 71.4347 340.337 74.3182C338.779 77.1686 338.001 80.6155 338.001 84.6591ZM545.857 131.065C540.53 131.065 535.914 129.893 532.007 127.55C528.101 125.206 525.071 121.927 522.916 117.713C520.786 113.499 519.72 108.575 519.72 102.94C519.72 97.3059 520.786 92.3698 522.916 88.1321C525.071 83.8944 528.101 80.6037 532.007 78.2599C535.914 75.9162 540.53 74.7443 545.857 74.7443C551.183 74.7443 555.8 75.9162 559.706 78.2599C563.612 80.6037 566.631 83.8944 568.762 88.1321C570.916 92.3698 571.993 97.3059 571.993 102.94C571.993 108.575 570.916 113.499 568.762 117.713C566.631 121.927 563.612 125.206 559.706 127.55C555.8 129.893 551.183 131.065 545.857 131.065ZM545.928 120.767C548.816 120.767 551.231 119.974 553.172 118.388C555.113 116.778 556.557 114.624 557.504 111.925C558.475 109.226 558.96 106.219 558.96 102.905C558.96 99.5668 558.475 96.5483 557.504 93.8494C556.557 91.1269 555.113 88.9607 553.172 87.3509C551.231 85.741 548.816 84.9361 545.928 84.9361C542.968 84.9361 540.506 85.741 538.541 87.3509C536.6 88.9607 535.144 91.1269 534.173 93.8494C533.227 96.5483 532.753 99.5668 532.753 102.905C532.753 106.219 533.227 109.226 534.173 111.925C535.144 114.624 536.6 116.778 538.541 118.388C540.506 119.974 542.968 120.767 545.928 120.767ZM274.133 161.266C273.802 158.164 272.405 155.75 269.943 154.021C267.504 152.293 264.332 151.429 260.426 151.429C257.679 151.429 255.324 151.843 253.359 152.672C251.394 153.5 249.891 154.625 248.849 156.045C247.807 157.466 247.275 159.088 247.251 160.911C247.251 162.426 247.594 163.74 248.281 164.852C248.991 165.965 249.95 166.912 251.157 167.693C252.365 168.451 253.702 169.09 255.17 169.611C256.638 170.132 258.117 170.57 259.609 170.925L266.427 172.629C269.173 173.268 271.813 174.133 274.346 175.222C276.903 176.311 279.187 177.684 281.2 179.341C283.236 180.998 284.846 182.999 286.029 185.342C287.213 187.686 287.805 190.432 287.805 193.581C287.805 197.842 286.716 201.595 284.538 204.838C282.36 208.058 279.211 210.579 275.092 212.402C270.996 214.201 266.036 215.101 260.213 215.101C254.554 215.101 249.642 214.225 245.475 212.473C241.332 210.721 238.089 208.164 235.745 204.803C233.425 201.441 232.17 197.345 231.981 192.516H244.943C245.132 195.049 245.913 197.156 247.286 198.837C248.66 200.518 250.447 201.772 252.649 202.601C254.874 203.429 257.36 203.844 260.106 203.844C262.971 203.844 265.48 203.418 267.634 202.565C269.812 201.689 271.517 200.482 272.748 198.943C273.979 197.381 274.606 195.558 274.63 193.474C274.606 191.58 274.05 190.018 272.961 188.787C271.872 187.532 270.345 186.491 268.38 185.662C266.439 184.81 264.166 184.052 261.562 183.389L253.288 181.259C247.298 179.72 242.563 177.388 239.083 174.263C235.627 171.114 233.899 166.936 233.899 161.727C233.899 157.442 235.059 153.69 237.379 150.47C239.722 147.25 242.907 144.753 246.931 142.977C250.956 141.178 255.513 140.278 260.603 140.278C265.764 140.278 270.286 141.178 274.169 142.977C278.075 144.753 281.141 147.227 283.366 150.399C285.591 153.548 286.74 157.17 286.811 161.266H274.133ZM378.666 215.101C375.21 215.101 372.097 214.485 369.327 213.254C366.581 212 364.403 210.153 362.793 207.714C361.207 205.276 360.414 202.269 360.414 198.695C360.414 195.617 360.982 193.072 362.118 191.06C363.254 189.047 364.805 187.438 366.77 186.23C368.735 185.023 370.949 184.111 373.411 183.496C375.896 182.857 378.465 182.395 381.117 182.111C384.313 181.779 386.905 181.483 388.894 181.223C390.882 180.939 392.326 180.513 393.226 179.945C394.149 179.353 394.611 178.441 394.611 177.21V176.997C394.611 174.322 393.818 172.25 392.232 170.783C390.646 169.315 388.361 168.581 385.378 168.581C382.229 168.581 379.732 169.268 377.885 170.641C376.062 172.014 374.831 173.635 374.192 175.506L362.189 173.801C363.136 170.487 364.699 167.717 366.877 165.491C369.055 163.242 371.718 161.562 374.867 160.449C378.015 159.312 381.495 158.744 385.307 158.744C387.935 158.744 390.551 159.052 393.155 159.668C395.759 160.283 398.138 161.301 400.293 162.722C402.447 164.118 404.175 166.024 405.477 168.439C406.803 170.854 407.466 173.872 407.466 177.494V214H395.108V206.507H394.682C393.901 208.022 392.8 209.443 391.379 210.768C389.983 212.071 388.219 213.124 386.088 213.929C383.981 214.71 381.507 215.101 378.666 215.101ZM382.004 205.655C384.585 205.655 386.822 205.146 388.716 204.128C390.61 203.086 392.066 201.713 393.084 200.009C394.126 198.304 394.646 196.446 394.646 194.433V188.006C394.244 188.337 393.557 188.645 392.587 188.929C391.64 189.213 390.575 189.462 389.391 189.675C388.207 189.888 387.035 190.077 385.875 190.243C384.715 190.409 383.709 190.551 382.857 190.669C380.939 190.929 379.223 191.356 377.708 191.947C376.192 192.539 374.997 193.368 374.121 194.433C373.245 195.475 372.807 196.824 372.807 198.482C372.807 200.849 373.671 202.636 375.399 203.844C377.128 205.051 379.329 205.655 382.004 205.655ZM484.381 214V159.455H497.236V214H484.381ZM490.844 151.713C488.808 151.713 487.056 151.038 485.588 149.689C484.12 148.316 483.386 146.67 483.386 144.753C483.386 142.812 484.12 141.166 485.588 139.817C487.056 138.444 488.808 137.757 490.844 137.757C492.903 137.757 494.655 138.444 496.099 139.817C497.567 141.166 498.301 142.812 498.301 144.753C498.301 146.67 497.567 148.316 496.099 149.689C494.655 151.038 492.903 151.713 490.844 151.713Z" fill="#FB7185"/>
</g>
<path opacity="0.1" d="M1114.21 47.3497C1114.14 47.6525 1114.14 47.9778 1114.2 48.3215C1114.2 48.3215 1115.23 55.16 1114.06 58.2035L1064.34 187.495L1064.34 187.497C1060.79 196.993 1065.55 207.596 1075.03 211.243C1084.51 214.89 1095.15 210.206 1098.88 200.779L1098.88 200.781L1148.61 71.4888C1149.58 68.9596 1155.12 64.0597 1155.12 64.0597C1155.4 63.8477 1155.62 63.6043 1155.77 63.3294L1155.79 63.279C1155.82 63.2251 1155.85 63.1732 1155.87 63.1169C1157.15 59.783 1148.88 53.4992 1137.4 49.0828C1125.91 44.6658 1115.56 43.7883 1114.28 47.1222C1114.26 47.1786 1114.25 47.2375 1114.23 47.2958L1114.21 47.3497Z" fill="black"/>
<path d="M1112.78 46.2507C1112.7 46.5535 1112.7 46.8788 1112.76 47.2225C1112.76 47.2225 1113.79 54.061 1112.62 57.1045L1062.9 186.396L1062.9 186.398C1059.36 195.894 1064.11 206.497 1073.59 210.144C1083.08 213.791 1093.71 209.107 1097.44 199.68L1097.45 199.682L1147.17 70.3898C1148.14 67.8606 1153.69 62.9607 1153.69 62.9607C1153.97 62.7487 1154.18 62.5058 1154.33 62.2304L1154.35 62.18C1154.38 62.1261 1154.41 62.0742 1154.43 62.0179C1155.71 58.6839 1147.44 52.4002 1135.96 47.9838C1124.48 43.5668 1114.13 42.6893 1112.84 46.0232C1112.82 46.0796 1112.81 46.1385 1112.79 46.1968L1112.78 46.2507Z" fill="url(#paint0_linear_12_116)"/>
<path d="M1128.38 104.741L1092.52 197.979L1092.54 197.988C1089.9 204.671 1082.2 208.148 1075.37 205.522C1068.54 202.897 1064.85 195.039 1067.36 188.305L1090.28 128.728C1090.28 128.728 1093.14 124.112 1098.76 120.828C1104.37 117.544 1109.01 118.237 1115.25 115.464C1121.49 112.69 1128.38 104.741 1128.38 104.741Z" fill="url(#paint1_linear_12_116)"/>
<path d="M1132.22 57.7665C1139.35 60.508 1145.71 61.2107 1146.43 59.3359C1147.15 57.4612 1141.96 53.719 1134.83 50.9775C1127.7 48.236 1121.34 47.5333 1120.62 49.4081C1119.9 51.2828 1125.09 55.025 1132.22 57.7665Z" fill="#333333"/>
<path opacity="0.3" d="M1112.76 47.222C1112.76 47.222 1113.78 54.0999 1112.62 57.104L1062.9 186.396L1062.9 186.397C1059.36 195.894 1064.11 206.496 1073.59 210.144C1075.24 210.777 1076.92 211.152 1078.59 211.303C1072.2 206.494 1069.46 197.894 1072.39 190.046L1072.39 190.044L1121.12 63.3169C1121.12 63.3174 1114.49 57.0881 1112.76 47.222Z" fill="white"/>
<path opacity="0.5" d="M1096.75 132.067C1097.55 132.067 1098.2 131.422 1098.2 130.626C1098.2 129.83 1097.55 129.185 1096.75 129.185C1095.96 129.185 1095.31 129.83 1095.31 130.626C1095.31 131.422 1095.96 132.067 1096.75 132.067Z" fill="white"/>
<path opacity="0.5" d="M1106.2 143.245C1107.4 143.245 1108.37 142.272 1108.37 141.073C1108.37 139.873 1107.4 138.901 1106.2 138.901C1105 138.901 1104.03 139.873 1104.03 141.073C1104.03 142.272 1105 143.245 1106.2 143.245Z" fill="white"/>
<path opacity="0.5" d="M1091.78 157.57C1094.03 157.57 1095.86 155.746 1095.86 153.496C1095.86 151.246 1094.03 149.422 1091.78 149.422C1089.53 149.422 1087.71 151.246 1087.71 153.496C1087.71 155.746 1089.53 157.57 1091.78 157.57Z" fill="white"/>
<path opacity="0.5" d="M1085.18 163.202C1086.38 163.202 1087.36 162.23 1087.36 161.03C1087.36 159.831 1086.38 158.858 1085.18 158.858C1083.99 158.858 1083.01 159.831 1083.01 161.03C1083.01 162.23 1083.99 163.202 1085.18 163.202Z" fill="white"/>
<path opacity="0.5" d="M1093.84 178.585C1094.63 178.585 1095.28 177.94 1095.28 177.144C1095.28 176.349 1094.63 175.704 1093.84 175.704C1093.04 175.704 1092.4 176.349 1092.4 177.144C1092.4 177.94 1093.04 178.585 1093.84 178.585Z" fill="white"/>
<g opacity="0.1">
<path d="M840.324 122.68C842.526 124.44 846.49 123.413 849.133 120.48C851.923 117.399 852.363 113.438 850.161 111.678C847.958 109.917 843.994 110.944 841.351 114.025C838.562 117.105 838.121 120.919 840.324 122.68ZM833.863 128.401C833.276 128.401 832.248 129.428 833.129 129.868C834.303 130.308 834.891 131.334 834.891 132.802C833.863 138.817 826.375 145.711 823.438 148.058C822.704 148.792 823.732 150.405 824.466 149.819C826.081 148.499 829.458 145.858 832.248 142.337C827.697 152.459 818.887 165.515 815.51 170.063C802.296 188.4 782.18 205.27 768.379 205.27C757.367 205.27 747.969 197.788 745.914 186.786C745.767 185.612 744.152 185.319 744.446 186.932C746.942 202.043 758.541 207.91 772.637 207.91C788.054 207.91 806.15 196.74 816.101 185.309C832.204 166.812 842.673 145.564 839.884 133.535C838.709 128.988 835.625 128.254 833.863 128.401ZM932.928 168.625C937.185 167.598 940.709 165.215 940.709 161.53C940.709 161.162 939.975 161.162 939.975 161.53C939.975 163.742 937.479 165.545 934.69 165.985C928.082 167.012 915.015 159.263 908.848 151.341C915.455 153.835 928.963 150.181 935.277 145.633C941.15 141.38 943.499 136.692 943.94 132.878C944.673 126.569 937.773 122.906 928.229 126.573C922.062 129.067 914.721 134.496 907.086 144.618C915.161 131.269 931.018 109.558 946.582 95.6225C965.522 78.7523 976.535 81.98 959.503 99.8773C952.455 107.212 939.241 116.747 930.137 120.855C927.348 122.029 928.669 123.642 930.725 122.762C940.415 118.508 953.336 109.706 961.117 102.371C984.17 80.22 964.935 63.4965 939.387 86.9682C922.062 102.958 910.756 119.681 900.919 141.392C897.541 145.5 895.046 148.874 891.962 151.514C891.598 151.836 891.307 152.149 891.067 152.447C882.588 159.713 869.278 169.523 861.007 169.64C855.133 169.787 852.638 165.386 853.665 159.665C855.28 150.716 864.531 140.154 872.459 136.487C882.737 131.793 888.756 140.888 875.249 148.222C870.109 150.863 863.943 152.33 861.447 152.33C858.51 152.33 858.804 153.503 861.3 153.65C865.411 153.796 872.018 152.036 876.423 149.982C890.225 143.381 891.106 131.058 876.129 130.618C859.832 130.031 840.304 143.968 840.45 161.424C840.597 169.346 846.911 173.6 855.573 173.6C869.98 173.47 882.865 162.486 893.401 152.825C894.913 151.568 896.375 150.185 897.835 148.726C894.164 158.114 892.255 166.77 893.136 173.225C893.724 177.919 896.367 180.119 898.422 181.88C898.863 182.173 899.744 181.88 899.156 180.999C896.073 177.332 896.954 166.45 901.212 155.888C904.737 162.931 918.538 171.853 932.928 168.625ZM915.602 138.018C932.487 122.908 939.094 136.405 928.376 144.619C922.796 148.873 911.784 152.101 908.261 150.047L907.526 149.607C907.086 148.873 906.645 148.14 906.352 147.407C909.142 144.033 912.372 140.952 915.602 138.018ZM1009.32 120.897C1016.07 121.63 1013.28 113.415 1006.38 115.469C1003.3 116.349 1000.36 122.217 998.157 127.351C991.403 137.473 980.097 151.263 972.169 158.451C965.121 164.466 958.661 166.079 966.589 154.783C969.819 150.236 973.93 145.395 976.28 140.554C981.859 128.378 969.966 122.95 960.423 130.285C954.843 134.539 947.355 143.341 941.482 148.182C939.867 149.502 940.307 151.41 941.923 150.089C946.62 146.275 954.843 137.62 961.891 132.486C967.763 127.938 970.113 130.872 966.736 134.686C962.037 140.114 953.815 149.502 951.76 155.517C948.823 164.466 952.347 168.426 958.22 168.426C966.296 168.426 978.335 155.81 986.411 145.835C989.054 142.461 991.991 138.5 994.487 134.686C987.439 148.329 980.097 162.118 970.995 174.587C958.074 192.191 941.923 205.394 926.653 205.394C915.641 205.394 906.097 197.912 904.041 186.91C903.895 185.736 902.426 185.443 902.573 187.056C905.069 202.166 916.669 208.034 930.764 208.034C946.181 208.034 961.01 199.085 971.435 188.083C992.431 165.932 994.927 140.994 1001.39 127.058C1004.32 120.897 1007.11 120.603 1009.32 120.897ZM1094.67 99.5376C1097.75 94.2566 1097.6 90.1489 1090.41 90.1489C1084.98 90.2956 1075.14 94.1094 1070.59 97.6304C1069.56 98.6576 1070 99.2443 1071.32 98.6576C1072.2 98.3643 1073.23 97.7771 1074.26 97.3376C1079.4 94.5504 1077.34 100.418 1076.17 102.619C1070 113.327 1059.14 128.437 1053.41 135.918C1050.67 139.602 1047.57 143.281 1044.6 146.409C1039.08 151.64 1028.19 160.907 1019.95 164.026C993.229 174.001 1027.29 128.525 1030.08 124.858C1036.4 116.936 1050.49 103.146 1054.75 96.2516C1057.83 90.9706 1057.69 86.8629 1050.49 86.8629C1045.06 87.0096 1035.22 90.8234 1030.67 94.3444C1029.64 95.3716 1030.08 95.9577 1031.4 95.3716C1032.29 95.0782 1033.31 94.4911 1034.34 94.0516C1039.48 91.2644 1037.43 97.1321 1036.25 99.3326C1030.08 110.041 1019.22 125.151 1013.49 132.633C1008.79 138.941 1003.07 145.249 998.662 148.77C996.901 150.236 997.928 151.557 999.69 150.383C1001.31 149.356 1003.65 147.009 1006.3 144.222C1001.45 153.904 997.488 167.547 1010.26 169.16C1021.15 170.648 1034.09 159.539 1042.46 151.311C1043.38 150.438 1044.39 149.413 1045.46 148.297C1045.71 148.04 1045.96 147.789 1046.2 147.545C1041.36 157.225 1037.42 170.835 1050.18 172.446C1064.13 174.353 1081.45 155.576 1088.21 148.68C1089.53 147.36 1089.09 145.16 1086.89 147.36C1082.92 151.468 1069.56 163.644 1059.87 167.312C1033.15 177.286 1067.21 131.811 1070 128.143C1076.31 120.222 1090.41 106.432 1094.67 99.5376Z" fill="black"/>
</g>
<path d="M838.914 121.27C841.116 123.03 845.08 122.004 847.723 119.069C850.513 115.989 850.953 112.028 848.751 110.267C846.549 108.507 842.584 109.534 839.941 112.614C837.151 115.695 836.711 119.51 838.914 121.27ZM832.453 126.991C831.866 126.991 830.838 128.018 831.719 128.458C832.893 128.898 833.481 129.925 833.481 131.392C832.453 137.407 824.965 144.301 822.028 146.649C821.294 147.382 822.322 148.996 823.056 148.409C824.671 147.089 828.048 144.448 830.838 140.927C826.286 151.049 817.476 164.105 814.1 168.653C800.886 186.99 780.77 203.86 766.968 203.86C755.956 203.86 746.559 196.379 744.504 185.376C744.357 184.202 742.742 183.909 743.036 185.523C745.531 200.632 757.131 206.5 771.227 206.5C786.644 206.5 804.739 195.329 814.691 183.898C830.794 165.401 841.263 144.154 838.473 132.125C837.298 127.578 834.215 126.845 832.453 126.991ZM931.517 167.215C935.775 166.188 939.299 163.806 939.299 160.12C939.299 159.752 938.565 159.752 938.565 160.12C938.565 162.331 936.069 164.134 933.279 164.574C926.672 165.601 913.604 157.853 907.437 149.931C914.045 152.425 927.553 148.771 933.866 144.224C939.74 139.969 942.089 135.281 942.529 131.468C943.263 125.159 936.362 121.496 926.818 125.163C920.652 127.657 913.311 133.086 905.676 143.208C913.751 129.859 929.608 108.149 945.172 94.2122C964.112 77.342 975.125 80.5697 958.093 98.467C951.045 105.802 937.83 115.337 928.727 119.445C925.937 120.619 927.259 122.232 929.314 121.352C939.005 117.098 951.926 108.296 959.708 100.961C982.759 78.8097 963.525 62.0862 937.977 85.5579C920.651 101.548 909.346 118.271 899.509 139.983C896.131 144.09 893.635 147.464 890.552 150.105C890.188 150.425 889.897 150.738 889.657 151.037C881.178 158.304 867.868 168.112 859.596 168.23C853.723 168.377 851.227 163.976 852.255 158.255C853.87 149.306 863.12 138.745 871.049 135.077C881.327 130.383 887.346 139.477 873.838 146.812C868.7 149.453 862.533 150.92 860.037 150.92C857.1 150.92 857.394 152.094 859.89 152.24C864.001 152.386 870.609 150.626 875.013 148.572C888.815 141.971 889.696 129.648 874.719 129.208C858.421 128.622 838.894 142.558 839.04 160.015C839.187 167.936 845.501 172.19 854.164 172.19C868.57 172.059 881.456 161.075 891.991 151.416C893.503 150.158 894.964 148.775 896.425 147.316C892.754 156.705 890.845 165.36 891.726 171.814C892.314 176.509 894.957 178.709 897.012 180.47C897.453 180.763 898.334 180.47 897.746 179.59C894.663 175.922 895.544 165.04 899.802 154.478C903.326 161.52 917.128 170.442 931.517 167.215ZM914.192 136.608C931.077 121.499 937.684 134.995 926.966 143.209C921.387 147.464 910.375 150.691 906.851 148.637L906.117 148.197C905.676 147.464 905.236 146.73 904.942 145.997C907.731 142.623 910.961 139.542 914.192 136.608ZM1007.91 119.487C1014.66 120.22 1011.87 112.005 1004.97 114.059C1001.89 114.939 998.95 120.807 996.747 125.942C989.993 136.064 978.688 149.853 970.759 157.041C963.711 163.056 957.251 164.67 965.179 153.374C968.409 148.826 972.521 143.985 974.87 139.145C980.449 126.969 968.556 121.541 959.012 128.876C953.433 133.13 945.945 141.932 940.072 146.773C938.457 148.093 938.897 150 940.512 148.679C945.211 144.865 953.433 136.21 960.48 131.076C966.354 126.528 968.703 129.463 965.326 133.276C960.628 138.704 952.405 148.093 950.349 154.108C947.413 163.056 950.937 167.017 956.809 167.017C964.885 167.017 976.925 154.401 985 144.426C987.643 141.051 990.58 137.091 993.076 133.276C986.028 146.919 978.687 160.709 969.583 173.178C956.663 190.781 940.512 203.984 925.242 203.984C914.23 203.984 904.686 196.503 902.63 185.5C902.483 184.326 901.015 184.034 901.162 185.647C903.658 200.757 915.257 206.624 929.353 206.624C944.77 206.624 959.599 197.676 970.024 186.674C991.02 164.523 993.516 139.584 999.977 125.648C1002.91 119.487 1005.7 119.193 1007.91 119.487ZM1093.26 98.1273C1096.34 92.8463 1096.19 88.7386 1089 88.7386C1083.57 88.8853 1073.73 92.6991 1069.18 96.2201C1068.15 97.2473 1068.59 97.834 1069.91 97.2473C1070.79 96.954 1071.82 96.3673 1072.85 95.9273C1077.99 93.1401 1075.93 99.0078 1074.76 101.208C1068.59 111.917 1057.72 127.027 1052 134.509C1049.26 138.192 1046.16 141.871 1043.18 144.999C1037.67 150.23 1026.78 159.497 1018.54 162.616C991.819 172.591 1025.88 127.115 1028.67 123.447C1034.99 115.526 1049.08 101.736 1053.34 94.8413C1056.42 89.5603 1056.28 85.4526 1049.08 85.4526C1043.65 85.5993 1033.81 89.4131 1029.26 92.9341C1028.23 93.9613 1028.67 94.5474 1029.99 93.9613C1030.88 93.6679 1031.9 93.0808 1032.93 92.6413C1038.07 89.8541 1036.01 95.7218 1034.84 97.9223C1028.67 108.631 1017.81 123.741 1012.08 131.222C1007.38 137.53 1001.66 143.838 997.251 147.359C995.49 148.826 996.518 150.147 998.28 148.973C999.895 147.945 1002.24 145.598 1004.89 142.811C1000.04 152.493 996.078 166.136 1008.85 167.75C1019.74 169.237 1032.68 158.128 1041.05 149.901C1041.97 149.028 1042.98 148.002 1044.05 146.887C1044.3 146.63 1044.55 146.379 1044.79 146.135C1039.95 155.815 1036.01 169.424 1048.77 171.035C1062.72 172.942 1080.04 154.165 1086.8 147.27C1088.12 145.95 1087.68 143.749 1085.48 145.95C1081.51 150.057 1068.15 162.234 1058.46 165.901C1031.74 175.876 1065.8 130.4 1068.59 126.732C1074.9 118.811 1089 105.022 1093.26 98.1273Z" fill="url(#paint2_linear_12_116)"/>
<g opacity="0.75">
<path d="M838.914 121.27C841.116 123.03 845.08 122.004 847.723 119.069C850.513 115.989 850.953 112.028 848.751 110.267C846.549 108.507 842.584 109.534 839.941 112.614C837.151 115.695 836.711 119.51 838.914 121.27ZM832.453 126.991C831.866 126.991 830.838 128.018 831.719 128.458C832.893 128.898 833.481 129.925 833.481 131.392C832.453 137.407 824.965 144.301 822.028 146.649C821.294 147.382 822.322 148.996 823.056 148.409C824.671 147.089 828.048 144.448 830.838 140.927C826.286 151.049 817.476 164.105 814.1 168.653C800.886 186.99 780.77 203.86 766.968 203.86C755.956 203.86 746.559 196.379 744.504 185.376C744.357 184.202 742.742 183.909 743.036 185.523C745.531 200.632 757.131 206.5 771.227 206.5C786.644 206.5 804.739 195.329 814.691 183.898C830.794 165.401 841.263 144.154 838.473 132.125C837.298 127.578 834.215 126.845 832.453 126.991ZM931.517 167.215C935.775 166.188 939.299 163.806 939.299 160.12C939.299 159.752 938.565 159.752 938.565 160.12C938.565 162.331 936.069 164.134 933.279 164.574C926.672 165.601 913.604 157.853 907.437 149.931C914.045 152.425 927.553 148.771 933.866 144.224C939.74 139.969 942.089 135.281 942.529 131.468C943.263 125.159 936.362 121.496 926.818 125.163C920.652 127.657 913.311 133.086 905.676 143.208C913.751 129.859 929.608 108.149 945.172 94.2122C964.112 77.342 975.125 80.5697 958.093 98.467C951.045 105.802 937.83 115.337 928.727 119.445C925.937 120.619 927.259 122.232 929.314 121.352C939.005 117.098 951.926 108.296 959.708 100.961C982.759 78.8097 963.525 62.0862 937.977 85.5579C920.651 101.548 909.346 118.271 899.509 139.983C896.131 144.09 893.635 147.464 890.552 150.105C890.188 150.425 889.897 150.738 889.657 151.037C881.178 158.304 867.868 168.112 859.596 168.23C853.723 168.377 851.227 163.976 852.255 158.255C853.87 149.306 863.12 138.745 871.049 135.077C881.327 130.383 887.346 139.477 873.838 146.812C868.7 149.453 862.533 150.92 860.037 150.92C857.1 150.92 857.394 152.094 859.89 152.24C864.001 152.386 870.609 150.626 875.013 148.572C888.815 141.971 889.696 129.648 874.719 129.208C858.421 128.622 838.894 142.558 839.04 160.015C839.187 167.936 845.501 172.19 854.164 172.19C868.57 172.059 881.456 161.075 891.991 151.416C893.503 150.158 894.964 148.775 896.425 147.316C892.754 156.705 890.845 165.36 891.726 171.814C892.314 176.509 894.957 178.709 897.012 180.47C897.453 180.763 898.334 180.47 897.746 179.59C894.663 175.922 895.544 165.04 899.802 154.478C903.326 161.52 917.128 170.442 931.517 167.215ZM914.192 136.608C931.077 121.499 937.684 134.995 926.966 143.209C921.387 147.464 910.375 150.691 906.851 148.637L906.117 148.197C905.676 147.464 905.236 146.73 904.942 145.997C907.731 142.623 910.961 139.542 914.192 136.608ZM1007.91 119.487C1014.66 120.22 1011.87 112.005 1004.97 114.059C1001.89 114.939 998.95 120.807 996.747 125.942C989.993 136.064 978.688 149.853 970.759 157.041C963.711 163.056 957.251 164.67 965.179 153.374C968.409 148.826 972.521 143.985 974.87 139.145C980.449 126.969 968.556 121.541 959.012 128.876C953.433 133.13 945.945 141.932 940.072 146.773C938.457 148.093 938.897 150 940.512 148.679C945.211 144.865 953.433 136.21 960.48 131.076C966.354 126.528 968.703 129.463 965.326 133.276C960.628 138.704 952.405 148.093 950.349 154.108C947.413 163.056 950.937 167.017 956.809 167.017C964.885 167.017 976.925 154.401 985 144.426C987.643 141.051 990.58 137.091 993.076 133.276C986.028 146.919 978.687 160.709 969.583 173.178C956.663 190.781 940.512 203.984 925.242 203.984C914.23 203.984 904.686 196.503 902.63 185.5C902.483 184.326 901.015 184.034 901.162 185.647C903.658 200.757 915.257 206.624 929.353 206.624C944.77 206.624 959.599 197.676 970.024 186.674C991.02 164.523 993.516 139.584 999.977 125.648C1002.91 119.487 1005.7 119.193 1007.91 119.487ZM1093.26 98.1273C1096.34 92.8463 1096.19 88.7386 1089 88.7386C1083.57 88.8853 1073.73 92.6991 1069.18 96.2201C1068.15 97.2473 1068.59 97.834 1069.91 97.2473C1070.79 96.954 1071.82 96.3673 1072.85 95.9273C1077.99 93.1401 1075.93 99.0078 1074.76 101.208C1068.59 111.917 1057.72 127.027 1052 134.509C1049.26 138.192 1046.16 141.871 1043.18 144.999C1037.67 150.23 1026.78 159.497 1018.54 162.616C991.819 172.591 1025.88 127.115 1028.67 123.447C1034.99 115.526 1049.08 101.736 1053.34 94.8413C1056.42 89.5603 1056.28 85.4526 1049.08 85.4526C1043.65 85.5993 1033.81 89.4131 1029.26 92.9341C1028.23 93.9613 1028.67 94.5474 1029.99 93.9613C1030.88 93.6679 1031.9 93.0808 1032.93 92.6413C1038.07 89.8541 1036.01 95.7218 1034.84 97.9223C1028.67 108.631 1017.81 123.741 1012.08 131.222C1007.38 137.53 1001.66 143.838 997.251 147.359C995.49 148.826 996.518 150.147 998.28 148.973C999.895 147.945 1002.24 145.598 1004.89 142.811C1000.04 152.493 996.078 166.136 1008.85 167.75C1019.74 169.237 1032.68 158.128 1041.05 149.901C1041.97 149.028 1042.98 148.002 1044.05 146.887C1044.3 146.63 1044.55 146.379 1044.79 146.135C1039.95 155.815 1036.01 169.424 1048.77 171.035C1062.72 172.942 1080.04 154.165 1086.8 147.27C1088.12 145.95 1087.68 143.749 1085.48 145.95C1081.51 150.057 1068.15 162.234 1058.46 165.901C1031.74 175.876 1065.8 130.4 1068.59 126.732C1074.9 118.811 1089 105.022 1093.26 98.1273Z" fill="white"/>
</g>
<path fill-rule="evenodd" clip-rule="evenodd" d="M31 216.953C32.3329 184.018 42.9669 153.479 60.3455 127.895C59.7124 131.3 59.3814 134.81 59.3814 138.398C59.3814 169.916 84.9224 195.466 116.429 195.466C147.935 195.466 173.476 169.916 173.476 138.398C173.476 106.88 147.935 81.3298 116.429 81.3298C112.842 81.3298 109.333 81.6609 105.93 82.2942C131.145 65.154 161.174 54.5722 193.568 53C199.128 93.7499 202 135.356 202 177.632C202 192.612 201.639 207.508 200.926 222.311C182.412 223.432 163.749 224 144.953 224C106.362 224 68.3312 221.604 31 216.953Z" fill="#FB7185"/>
<path fill-rule="evenodd" clip-rule="evenodd" d="M116.429 181.199C140.059 181.199 159.214 162.036 159.214 138.398C159.214 114.76 140.059 95.5968 116.429 95.5968C92.799 95.5968 73.6433 114.76 73.6433 138.398C73.6433 162.036 92.799 181.199 116.429 181.199ZM116.429 152.665C124.305 152.665 130.691 146.277 130.691 138.398C130.691 130.518 124.305 124.131 116.429 124.131C108.552 124.131 102.167 130.518 102.167 138.398C102.167 146.277 108.552 152.665 116.429 152.665Z" fill="#22D3EE"/>
<defs>
<filter id="filter0_d_12_116" x="638" y="93" width="83" height="83" filterUnits="userSpaceOnUse" color-interpolation-filters="sRGB">
<feFlood flood-opacity="0" result="BackgroundImageFix"/>
<feColorMatrix in="SourceAlpha" type="matrix" values="0 0 0 0 0 0 0 0 0 0 0 0 0 0 0 0 0 0 127 0" result="hardAlpha"/>
<feOffset dy="4"/>
<feGaussianBlur stdDeviation="2"/>
<feComposite in2="hardAlpha" operator="out"/>
<feColorMatrix type="matrix" values="0 0 0 0 0 0 0 0 0 0 0 0 0 0 0 0 0 0 0.25 0"/>
<feBlend mode="normal" in2="BackgroundImageFix" result="effect1_dropShadow_12_116"/>
<feBlend mode="normal" in="SourceGraphic" in2="effect1_dropShadow_12_116" result="shape"/>
</filter>
<filter id="filter1_d_12_116" x="227.028" y="26.7898" width="348.965" height="196.311" filterUnits="userSpaceOnUse" color-interpolation-filters="sRGB">
<feFlood flood-opacity="0" result="BackgroundImageFix"/>
<feColorMatrix in="SourceAlpha" type="matrix" values="0 0 0 0 0 0 0 0 0 0 0 0 0 0 0 0 0 0 127 0" result="hardAlpha"/>
<feOffset dy="4"/>
<feGaussianBlur stdDeviation="2"/>
<feComposite in2="hardAlpha" operator="out"/>
<feColorMatrix type="matrix" values="0 0 0 0 0 0 0 0 0 0 0 0 0 0 0 0 0 0 0.25 0"/>
<feBlend mode="normal" in2="BackgroundImageFix" result="effect1_dropShadow_12_116"/>
<feBlend mode="normal" in="SourceGraphic" in2="effect1_dropShadow_12_116" result="shape"/>
</filter>
<linearGradient id="paint0_linear_12_116" x1="1083.98" y1="121.068" x2="1125.57" y2="137.061" gradientUnits="userSpaceOnUse">
<stop stop-color="#919191"/>
<stop offset="1" stop-color="white"/>
</linearGradient>
<linearGradient id="paint1_linear_12_116" x1="1082.92" y1="147.843" x2="1108.1" y2="157.525" gradientUnits="userSpaceOnUse">
<stop stop-color="#990000"/>
<stop offset="1" stop-color="#E80000"/>
</linearGradient>
<linearGradient id="paint2_linear_12_116" x1="919.082" y1="206.624" x2="919.082" y2="74.1891" gradientUnits="userSpaceOnUse">
<stop stop-color="#1A1A1A"/>
<stop offset="0.4026" stop-color="#4A4A4C"/>
<stop offset="1" stop-color="#333333"/>
</linearGradient>
</defs>
</svg>
